<svg width="206" height="52" viewBox="0 0 206 52" fill="none" xmlns="http://www.w3.org/2000/svg">
<g clip-path="url(#clip0_2176_7793)">
<path d="M49.8763 27.5979C50.2295 25.9174 50.405 24.0912 50.405 22.1194C50.405 19.3758 49.9522 16.7376 49.0389 14.2071C48.1266 11.6765 46.7464 9.41556 44.8949 7.42635C43.0433 5.43496 40.7238 3.84685 37.9319 2.66202C35.1465 1.48153 31.8714 0.884766 28.1185 0.884766C25.3818 0.884766 23.0222 1.18478 21.0341 1.77502C19.0526 2.36635 17.3463 3.18595 15.9259 4.23708C14.5045 5.28604 13.3388 6.55131 12.4266 8.0329C11.5143 9.51122 10.8177 11.1385 10.3334 12.9168L11.4612 13.4799C11.5696 12.7277 11.8903 11.732 12.4255 10.4939C12.9628 9.25469 13.7515 8.05681 14.797 6.90024C15.8447 5.74258 17.161 4.74797 18.7428 3.91207C20.3245 3.07725 22.189 2.66202 24.3352 2.66202C27.2322 2.66202 29.8476 3.42944 32.1812 4.9632C34.5148 6.49479 36.4855 8.47422 38.0944 10.8961C39.7043 13.3179 40.9502 16.0093 41.8343 18.9692C41.8527 19.0247 41.8679 19.0779 41.883 19.1334C41.8549 19.0823 41.8278 19.0355 41.7974 18.9844C40.6696 17.0735 39.2731 15.431 37.6112 14.0571C35.9471 12.6874 34.0988 11.6102 32.0609 10.8287C30.0209 10.0493 27.93 9.65905 25.7837 9.65905C23.2627 9.65905 20.7936 10.0765 18.3798 10.908C15.966 11.7428 13.7927 13.0233 11.8621 14.743C9.93258 16.4659 8.37574 18.6475 7.19484 21.2824C6.82106 22.1194 6.50579 23.0074 6.25011 23.9455H0V25.1586H5.95868C5.60224 26.8435 5.42457 28.6718 5.42457 30.648C5.42457 33.3948 5.87743 36.0308 6.79289 38.5603C7.70511 41.0908 9.08319 43.3518 10.9369 45.341C12.7862 47.3324 15.108 48.9227 17.8977 50.1042C20.6853 51.2891 23.9582 51.8826 27.7133 51.8826C30.4478 51.8826 32.8074 51.5858 34.7944 50.9956C36.7802 50.401 38.4822 49.5825 39.9037 48.5303C41.3251 47.4813 42.493 46.2171 43.4019 44.7377C44.3152 43.2561 45.014 41.6289 45.4961 39.8538L44.3694 39.2875C44.2611 40.0419 43.9404 41.0354 43.4019 42.2724C42.8657 43.5127 42.0759 44.7095 41.0315 45.8671C39.986 47.0269 38.6697 48.0194 37.0879 48.8553C35.504 49.6901 33.6416 50.1042 31.4954 50.1042C28.5984 50.1042 25.9809 49.3379 23.6505 47.8063C21.3169 46.2726 19.343 44.2931 17.7374 41.8713C16.1253 39.4494 14.8794 36.758 13.9942 33.797C13.9769 33.7416 13.9617 33.684 13.9466 33.6286C13.9736 33.6807 14.004 33.7318 14.0343 33.784C15.1621 35.6928 16.5565 37.3352 18.2184 38.7081C19.8825 40.0821 21.7318 41.1582 23.7708 41.9376C25.8087 42.717 27.9018 43.1072 30.048 43.1072C32.5701 43.1072 35.036 42.692 37.4498 41.8572C39.8668 41.0223 42.0369 39.7451 43.9664 38.0222C45.8992 36.3004 47.456 34.1188 48.6347 31.4839C49.0107 30.6415 49.326 29.7501 49.5816 28.8077H55.8296V27.5957H49.8752L49.8763 27.5979ZM13.6313 18.9855C14.1156 17.4518 14.8241 16.0908 15.7645 14.906C16.7016 13.7244 17.8425 12.7961 19.1869 12.1222C20.5249 11.4483 22.1349 11.1135 24.0146 11.1135C25.7837 11.1135 27.3785 11.595 28.8021 12.5646C30.2213 13.5353 31.4423 14.7049 32.4618 16.0778C33.4791 17.4507 34.3112 18.8627 34.9558 20.3149C35.5972 21.7694 36.0533 22.9792 36.3252 23.9466H12.7462C12.8545 22.1737 13.1503 20.516 13.6313 18.9844M42.2005 33.7873C41.714 35.321 41.0044 36.6787 40.0651 37.8635C39.1279 39.0462 37.9871 39.9766 36.6459 40.6484C35.3046 41.3224 33.6969 41.6604 31.8172 41.6604C30.048 41.6604 28.4532 41.1745 27.0297 40.206C25.6082 39.2386 24.3873 38.0657 23.3678 36.6928C22.3494 35.3221 21.5195 33.9079 20.876 32.4546C20.2313 31.0034 19.7752 29.7914 19.5076 28.8229H43.0823C42.9772 30.5991 42.6815 32.2535 42.2005 33.7883M43.1636 27.6098H12.7797C12.7039 26.788 12.6671 25.9695 12.6671 25.1608H43.0509C43.1268 25.9804 43.1636 26.7902 43.1636 27.5979V27.6098Z" fill="white"/>
<path d="M73.454 42.9404H72.3706C72.0531 42.9404 71.7834 42.873 71.5569 42.7252C71.3424 44.4013 70.1789 45.4329 68.3837 45.4329C66.3967 45.4329 65.4033 44.2546 65.4033 41.8871V39.9164H66.0696V41.8425C66.0696 42.8274 66.2841 43.6209 66.7023 44.2209C67.1194 44.8209 67.7401 45.1264 68.5419 45.1264C69.1973 45.1264 69.7509 44.8427 70.2146 44.2763C70.6772 43.6643 70.9145 42.8828 70.9145 41.9436V39.7446L70.7217 38.3511L71.5808 38.1348V41.2164C71.5808 41.9991 71.9318 42.3947 72.6306 42.3947H73.4551V42.9382L73.454 42.9404ZM69.0164 39.6674C69.0164 40.0294 68.8355 40.2109 68.4628 40.2109C68.0901 40.2109 67.9102 40.0294 67.9102 39.6674C67.9102 39.3609 68.1475 39.112 68.4628 39.112C68.7455 39.112 69.0164 39.362 69.0164 39.6674Z" fill="white"/>
<path d="M74.674 42.3828H73.1378V42.9383H74.674V42.3828Z" fill="white"/>
<path d="M75.8458 42.3828H74.3095V42.9383H75.8458V42.3828Z" fill="white"/>
<path d="M77.0215 42.3828H75.4853V42.9383H77.0215V42.3828Z" fill="white"/>
<path d="M78.1964 42.3828H76.6601V42.9383H78.1964V42.3828Z" fill="white"/>
<path d="M81.8869 42.9393H81.1751C80.6897 42.9393 80.317 42.7795 80.0462 42.4632C79.7862 42.7795 79.4363 42.9393 78.9856 42.9393H77.7548V42.3947H78.6681C79.3691 42.3947 79.7179 41.9882 79.7179 41.1719V39.7783L79.537 38.35L80.407 38.1348V41.1816C80.407 41.9871 80.745 42.3936 81.434 42.3936H81.8858V42.9382L81.8869 42.9393ZM78.9401 44.9557C78.9401 45.272 78.77 45.4307 78.4428 45.4307C78.1156 45.4307 77.9466 45.272 77.9466 44.9448C77.9466 44.6177 78.1167 44.4459 78.4428 44.4459C78.7039 44.4459 78.9401 44.6731 78.9401 44.9557ZM80.4297 44.9557C80.4297 45.272 80.2596 45.4307 79.9216 45.4307C79.5836 45.4307 79.4254 45.272 79.4254 44.9448C79.4254 44.6177 79.5944 44.4459 79.9216 44.4459C80.2044 44.4459 80.4297 44.6731 80.4297 44.9557Z" fill="white"/>
<path d="M83.1408 42.3828H81.6046V42.9383H83.1408V42.3828Z" fill="white"/>
<path d="M84.3144 42.3828H82.7781V42.9383H84.3144V42.3828Z" fill="white"/>
<path d="M85.4874 42.3828H83.9511V42.9383H85.4874V42.3828Z" fill="white"/>
<path d="M86.6631 42.3828H85.1269V42.9383H86.6631V42.3828Z" fill="white"/>
<path d="M91.5389 38.1373L91.449 39.2472V40.9918C91.449 42.2951 90.6917 42.9408 89.1793 42.9408H86.3007V42.3973H88.0504C87.7243 41.9766 87.5542 41.4233 87.5542 40.7211C87.5542 39.8711 87.7915 39.1906 88.2541 38.6808C88.7286 38.1721 89.3602 37.9102 90.1511 37.9102C90.6592 37.9102 91.1218 37.9895 91.54 38.1373M90.7611 39.3157L90.6484 38.4558C90.3645 38.3754 90.1175 38.3308 89.903 38.3308C89.3494 38.3308 88.9193 38.5461 88.6376 38.9765C88.3884 39.3493 88.266 39.8494 88.266 40.495C88.266 41.6157 88.7167 42.3984 89.4393 42.3984C90.3873 42.3984 90.8629 41.7755 90.8629 40.5407C90.8629 40.2353 90.8282 39.8265 90.7611 39.3167" fill="white"/>
<path d="M94.2934 35.182H92.2382V34.8885H92.6217V34.695C92.6217 34.0722 92.8709 33.7559 93.379 33.7559C93.6163 33.7559 93.8297 33.8461 94.0226 34.0396L93.898 34.2211C93.7734 34.1189 93.638 34.0624 93.5145 34.0624C93.1537 34.0624 92.9728 34.2896 92.9728 34.7537V34.8896H93.6044L93.8991 34.844L94.2934 35.1831V35.182ZM95.3887 42.9421H94.418C93.4592 42.9421 92.9728 42.4214 92.9728 41.3779V37.1864L92.7918 35.8386L93.6499 35.6342V41.1736C93.6499 41.9899 94.0009 42.3975 94.6889 42.3975H95.3887V42.941V42.9421Z" fill="white"/>
<path d="M96.6201 42.3828H95.0838V42.9383H96.6201V42.3828Z" fill="white"/>
<path d="M97.7951 42.3828H96.2589V42.9383H97.7951V42.3828Z" fill="white"/>
<path d="M98.9698 42.3828H97.4335V42.9383H98.9698V42.3828Z" fill="white"/>
<path d="M100.142 42.3828H98.6054V42.9383H100.142V42.3828Z" fill="white"/>
<path d="M103.834 42.9418H103.122C102.637 42.9418 102.263 42.7831 101.993 42.4657C101.733 42.7842 101.384 42.9418 100.933 42.9418H99.7021V42.3983H100.615C101.315 42.3983 101.665 41.9907 101.665 41.1744V39.7808L101.484 38.3525L102.354 38.1373V41.1852C102.354 41.9896 102.692 42.3972 103.381 42.3972H103.833V42.9408L103.834 42.9418ZM101.248 36.1329C101.248 36.4492 101.078 36.6079 100.74 36.6079C100.402 36.6079 100.244 36.4492 100.244 36.122C100.244 35.7948 100.413 35.623 100.74 35.623C101.023 35.623 101.248 35.8502 101.248 36.1329ZM102.739 36.1329C102.739 36.4492 102.569 36.6079 102.243 36.6079C101.917 36.6079 101.745 36.4492 101.745 36.122C101.745 35.7948 101.915 35.623 102.243 35.623C102.512 35.623 102.739 35.8502 102.739 36.1329Z" fill="white"/>
<path d="M105.088 42.3828H103.552V42.9383H105.088V42.3828Z" fill="white"/>
<path d="M106.261 42.3828H104.725V42.9383H106.261V42.3828Z" fill="white"/>
<path d="M107.436 42.3828H105.899V42.9383H107.436V42.3828Z" fill="white"/>
<path d="M108.609 42.3828H107.073V42.9383H108.609V42.3828Z" fill="white"/>
<path d="M111.545 41.3787C111.545 42.3636 110.993 42.9429 110.088 42.9429H108.203V42.3994H109.817C110.528 42.3994 110.878 41.9918 110.878 41.1755V37.2329L110.697 35.8394L111.544 35.623V41.3787H111.545Z" fill="white"/>
<path d="M113.713 35.623L113.611 36.9698V42.9418H112.934V36.9698L112.774 35.7024L113.713 35.623Z" fill="white"/>
<path d="M122.022 42.9409H121.255C120.904 42.9409 120.588 42.8496 120.307 42.6789C120.092 42.543 119.944 42.3952 119.866 42.2376C119.495 42.5104 118.987 42.6583 118.343 42.6789C117.304 42.6789 116.627 41.8637 116.627 40.4712C116.627 39.7451 116.853 39.1679 117.293 38.7266C117.744 38.2853 118.331 38.0689 119.055 38.0689H119.653L119.596 37.4461C119.957 37.3548 120.251 37.2874 120.487 37.2309V41.1843C120.487 41.9898 120.838 42.3963 121.539 42.3963H122.023V42.9409H122.022ZM119.787 41.8876L119.731 38.4309C119.425 38.4309 119.177 38.4309 118.974 38.4429C118.534 38.4537 118.149 38.6244 117.823 38.9744C117.495 39.3255 117.338 39.7571 117.338 40.2777C117.348 41.4897 117.766 42.1017 118.613 42.1017C118.964 42.1017 119.358 42.0332 119.787 41.8865M118.894 35.8254C118.894 36.1547 118.725 36.3123 118.398 36.3123C118.071 36.3123 117.89 36.1417 117.89 35.8025C117.89 35.4634 118.06 35.3047 118.398 35.3047C118.67 35.3047 118.894 35.5199 118.894 35.8254ZM120.374 35.8254C120.374 36.1547 120.216 36.3123 119.889 36.3123C119.562 36.3123 119.393 36.1417 119.393 35.8025C119.393 35.4634 119.562 35.3047 119.889 35.3047C120.149 35.3047 120.374 35.5199 120.374 35.8254Z" fill="white"/>
<path d="M123.252 42.3828H121.716V42.9383H123.252V42.3828Z" fill="white"/>
<path d="M124.427 42.3828H122.891V42.9383H124.427V42.3828Z" fill="white"/>
<path d="M125.601 42.3828H124.064V42.9383H125.601V42.3828Z" fill="white"/>
<path d="M126.774 42.3828H125.238V42.9383H126.774V42.3828Z" fill="white"/>
<path d="M135.198 42.9384H126.414V42.3949H128.085V37.3197L127.949 36.0729L128.874 35.9707L128.761 37.3197L128.671 41.5112C129.709 39.3252 131.03 38.236 132.633 38.236C133.39 38.236 134 38.4175 134.473 38.7795C134.959 39.1306 135.196 39.5959 135.196 40.1622V42.9384H135.198ZM134.498 42.3949V40.3665C134.498 39.3817 133.685 38.8154 132.387 38.8154C131.089 38.8154 129.88 40.0046 128.818 42.3949H134.498Z" fill="white"/>
<path d="M139.047 42.9407H138.076C137.118 42.9407 136.631 42.4201 136.631 41.3765V37.1851L136.45 35.8372L137.307 35.6328V41.1722C137.307 41.9885 137.658 42.3961 138.346 42.3961H139.046V42.9396L139.047 42.9407Z" fill="white"/>
<path d="M140.277 42.3828H138.741V42.9383H140.277V42.3828Z" fill="white"/>
<path d="M141.452 42.3828H139.916V42.9383H141.452V42.3828Z" fill="white"/>
<path d="M142.626 42.3828H141.09V42.9383H142.626V42.3828Z" fill="white"/>
<path d="M143.801 42.3828H142.265V42.9383H143.801V42.3828Z" fill="white"/>
<path d="M151.795 41.3762C151.795 42.3273 151.242 42.9404 150.372 42.9404C149.729 42.9404 149.209 42.635 148.813 42.0121C148.598 42.635 148.147 42.9404 147.481 42.9404C146.927 42.9404 146.442 42.6904 146.046 42.2034C145.99 42.3176 145.911 42.4306 145.809 42.5328C145.549 42.8034 145.199 42.9404 144.759 42.9404H143.437V42.3969H144.476C145.176 42.3969 145.526 41.9893 145.526 41.1729L145.537 38.7946L146.203 38.6239V41.4664C146.203 41.6034 146.193 41.7284 146.158 41.8512C146.519 42.1925 146.859 42.361 147.185 42.361C147.874 42.361 148.224 41.9654 148.224 41.161V38.7935L148.89 38.6228V41.6817C149.285 42.1338 149.692 42.361 150.098 42.361C150.775 42.361 151.114 41.9654 151.114 41.161V39.7783L150.922 38.35L151.792 38.1348V41.3751L151.795 41.3762Z" fill="white"/>
<path d="M159.244 42.9382H156.952C156.827 44.2644 156.127 45.1025 154.831 45.4536L154.649 45.1579C155.214 44.9427 155.632 44.5916 155.914 44.1046C156.128 43.7426 156.242 43.3567 156.252 42.9382H154.909C154.378 42.9382 153.938 42.7687 153.61 42.4284C153.259 42.0436 153.091 41.5219 153.091 40.8664C153.091 40.0381 153.317 39.3816 153.757 38.8826C154.208 38.3848 154.795 38.1348 155.517 38.1348H156.952V42.3947H159.244V42.9382ZM156.252 42.3947V38.4967H155.438C154.389 38.4967 153.801 39.325 153.801 40.6392C153.801 41.8056 154.23 42.3947 155.078 42.3947H156.252Z" fill="white"/>
<path d="M160.464 42.3828H158.928V42.9383H160.464V42.3828Z" fill="white"/>
<path d="M161.639 42.3828H160.102V42.9383H161.639V42.3828Z" fill="white"/>
<path d="M162.812 42.3828H161.275V42.9383H162.812V42.3828Z" fill="white"/>
<path d="M165.747 41.3787C165.747 42.3636 165.195 42.9429 164.29 42.9429H162.405V42.3994H164.019C164.73 42.3994 165.08 41.9918 165.08 41.1755V37.2329L164.899 35.8394L165.746 35.623V41.3787H165.747Z" fill="white"/>
<path d="M178.968 42.9393H177.884C177.388 42.9393 177.014 42.7805 176.755 42.4642C176.495 42.7805 176.135 42.9393 175.649 42.9393H170.579C169.417 42.9393 168.659 42.0001 168.659 40.5044C168.659 39.9261 168.773 39.4174 169.01 38.9858H169.473C169.246 39.325 169.135 39.7446 169.135 40.2544C169.135 41.5577 169.733 42.3947 170.694 42.3947H175.378C176.068 42.3947 176.417 41.9881 176.417 41.1827V39.7782L176.237 38.3499L177.095 38.1347V41.1816C177.095 41.987 177.446 42.3936 178.144 42.3936H178.969V42.9371L178.968 42.9393ZM172.701 38.1934C172.701 38.5228 172.543 38.6912 172.216 38.6912C171.889 38.6912 171.72 38.5217 171.72 38.1825C171.72 37.8434 171.889 37.6836 172.216 37.6836C172.476 37.6836 172.701 37.9108 172.701 38.1934ZM174.192 38.1934C174.192 38.5228 174.022 38.6912 173.696 38.6912C173.37 38.6912 173.199 38.5217 173.199 38.1825C173.199 37.8434 173.369 37.6836 173.696 37.6836C173.966 37.6836 174.192 37.9108 174.192 38.1934Z" fill="white"/>
<path d="M180.04 42.3828H178.504V42.9383H180.04V42.3828Z" fill="white"/>
<path d="M181.215 42.3828H179.679V42.9383H181.215V42.3828Z" fill="white"/>
<path d="M182.389 42.3828H180.852V42.9383H182.389V42.3828Z" fill="white"/>
<path d="M183.563 42.3828H182.026V42.9383H183.563V42.3828Z" fill="white"/>
<path d="M187.255 42.9432H186.543C186.058 42.9432 185.685 42.7834 185.414 42.4671C185.154 42.7834 184.804 42.9432 184.354 42.9432H183.123V42.3986H184.036C184.737 42.3986 185.086 41.9921 185.086 41.1758V39.7822L184.905 38.3539L185.775 38.1387V41.1855C185.775 41.991 186.113 42.3975 186.802 42.3975H187.254V42.9421L187.255 42.9432ZM184.308 44.9596C184.308 45.2759 184.138 45.4346 183.811 45.4346C183.484 45.4346 183.315 45.2759 183.315 44.9487C183.315 44.6216 183.485 44.4498 183.811 44.4498C184.072 44.4498 184.308 44.677 184.308 44.9596ZM185.798 44.9596C185.798 45.2759 185.628 45.4346 185.29 45.4346C184.952 45.4346 184.794 45.2759 184.794 44.9487C184.794 44.6216 184.963 44.4498 185.29 44.4498C185.573 44.4498 185.798 44.677 185.798 44.9596Z" fill="white"/>
<path d="M188.507 42.3828H186.971V42.9383H188.507V42.3828Z" fill="white"/>
<path d="M189.683 42.3828H188.146V42.9383H189.683V42.3828Z" fill="white"/>
<path d="M190.856 42.3828H189.319V42.9383H190.856V42.3828Z" fill="white"/>
<path d="M192.031 42.3828H190.495V42.9383H192.031V42.3828Z" fill="white"/>
<path d="M195.722 42.9429H195.01C194.525 42.9429 194.152 42.7842 193.881 42.4679C193.621 42.7842 193.271 42.9429 192.82 42.9429H191.59V42.3994H192.503C193.204 42.3994 193.553 41.9918 193.553 41.1755V37.2666L193.372 35.8394L194.242 35.623V41.1863C194.242 41.9907 194.58 42.3983 195.269 42.3983H195.721V42.9418L195.722 42.9429Z" fill="white"/>
<path d="M196.976 42.3828H195.439V42.9383H196.976V42.3828Z" fill="white"/>
<path d="M198.149 42.3828H196.613V42.9383H198.149V42.3828Z" fill="white"/>
<path d="M199.325 42.3828H197.789V42.9383H199.325V42.3828Z" fill="white"/>
<path d="M200.497 42.3828H198.961V42.9383H200.497V42.3828Z" fill="white"/>
<path d="M200.971 44.9605C200.971 45.2898 200.801 45.4583 200.463 45.4583C200.125 45.4583 199.967 45.2888 199.967 44.9605C199.967 44.6322 200.136 44.4507 200.463 44.4507C200.746 44.4507 200.971 44.6779 200.971 44.9605ZM203.071 41.381C203.071 42.3658 202.517 42.9452 201.625 42.9452H200.088V42.4006H201.342C202.043 42.4006 202.392 41.9941 202.392 41.1777V39.7613L202.211 38.3559L203.07 38.1406V41.381H203.071ZM202.461 44.9605C202.461 45.2898 202.291 45.4583 201.965 45.4583C201.639 45.4583 201.467 45.2888 201.467 44.9605C201.467 44.6322 201.638 44.4507 201.965 44.4507C202.234 44.4507 202.461 44.6779 202.461 44.9605Z" fill="white"/>
<path d="M205.757 45.1495H203.702V44.8452H204.086V44.6745C204.086 44.0397 204.335 43.7223 204.842 43.7223C205.08 43.7223 205.306 43.8125 205.497 44.006L205.373 44.1767C205.237 44.0854 205.113 44.0397 204.989 44.0397C204.618 44.0397 204.437 44.2669 204.447 44.7202V44.8452H205.08L205.363 44.8104L205.757 45.1495ZM205.238 35.623L205.137 36.9709V42.9429H204.459V36.9709L204.3 35.7024L205.238 35.623Z" fill="white"/>
<path d="M66.8308 21.2793H65.8222V28.6133H66.8308V21.2793Z" fill="white"/>
<path d="M69.1562 21.2793H69.7629L74.6913 26.7882V21.2793H75.2319V28.7622H74.9556L69.713 22.7294V28.6133H69.1562V21.2793Z" fill="white"/>
<path d="M79.8347 28.3201C80.0297 28.3201 80.2215 28.2951 80.4111 28.2451C80.5996 28.1951 80.7686 28.1212 80.9181 28.0234C81.0665 27.9266 81.1868 27.806 81.2789 27.6646C81.3699 27.5223 81.4165 27.357 81.4165 27.169C81.4165 26.9668 81.3634 26.7809 81.2561 26.6157C81.1489 26.4494 81.0091 26.295 80.8325 26.1537C80.6559 26.0113 80.4523 25.8776 80.2237 25.7494C79.994 25.6222 79.7567 25.4961 79.5151 25.3711C79.2584 25.2385 79.0027 25.1004 78.7513 24.9591C78.5 24.8167 78.2735 24.6558 78.0742 24.4776C77.8738 24.2993 77.7113 24.096 77.5888 23.8699C77.4664 23.6438 77.4047 23.3786 77.4047 23.0764C77.4047 22.796 77.4545 22.5351 77.5531 22.297C77.6517 22.0568 77.7979 21.8503 77.9919 21.6742C78.1847 21.4992 78.4231 21.3611 78.7047 21.2622C78.9886 21.1633 79.3125 21.1133 79.6755 21.1133C80.0016 21.1133 80.2952 21.1492 80.5541 21.2231C80.8141 21.297 81.0405 21.4068 81.2377 21.5524C81.4349 21.6992 81.6017 21.8785 81.7426 22.0916C81.8813 22.3046 81.9983 22.5536 82.0893 22.8329L81.6494 23.0384C81.5801 22.8231 81.4858 22.6275 81.371 22.4492C81.2551 22.2709 81.1142 22.1177 80.9485 21.9905C80.7838 21.8633 80.5909 21.7655 80.371 21.6937C80.15 21.6242 79.8997 21.5894 79.6202 21.5894C79.3699 21.5894 79.1522 21.622 78.9648 21.6861C78.7773 21.7503 78.6224 21.8361 78.4989 21.9416C78.3754 22.047 78.2822 22.1644 78.2205 22.2949C78.1576 22.4264 78.1273 22.5601 78.1273 22.696C78.1273 22.8623 78.1804 23.0199 78.2887 23.1699C78.3971 23.3188 78.5401 23.4612 78.7199 23.5982C78.8976 23.7351 79.1013 23.8667 79.3288 23.9938C79.5563 24.1199 79.7903 24.246 80.0286 24.3721C80.293 24.508 80.5584 24.6526 80.8228 24.8058C81.086 24.9591 81.3255 25.1298 81.5389 25.3145C81.7534 25.5015 81.9257 25.707 82.0611 25.9298C82.1944 26.1526 82.2615 26.4026 82.2615 26.6787C82.2615 26.9701 82.2084 27.244 82.1023 27.5005C81.995 27.757 81.8379 27.9799 81.6277 28.1701C81.4186 28.3592 81.1565 28.5092 80.8423 28.6201C80.5281 28.731 80.163 28.7864 79.7481 28.7864C79.4176 28.7864 79.1197 28.7473 78.8553 28.6712C78.591 28.5929 78.3559 28.4788 78.1511 28.3299C77.9474 28.181 77.773 27.9984 77.6278 27.782C77.4816 27.5668 77.3602 27.3201 77.2617 27.044L77.7297 26.8505C77.8034 27.0831 77.9074 27.2896 78.0417 27.469C78.175 27.6505 78.3321 27.8049 78.513 27.931C78.6939 28.0581 78.8954 28.1549 79.1186 28.2223C79.3429 28.2875 79.5823 28.3212 79.8358 28.3212" fill="white"/>
<path d="M84.3046 21.2793H85.3133V26.0415C85.3133 26.3545 85.3696 26.6491 85.4823 26.923C85.595 27.198 85.7542 27.4383 85.9611 27.6448C86.1681 27.8513 86.4205 28.0144 86.7141 28.135C87.0088 28.2546 87.336 28.3155 87.7 28.3155C87.9145 28.3155 88.1171 28.2829 88.3132 28.2176C88.5071 28.1535 88.6891 28.0655 88.856 27.9557C89.0228 27.8448 89.1745 27.7154 89.311 27.5676C89.4464 27.4198 89.5634 27.2611 89.6599 27.0926C89.7574 26.923 89.8321 26.748 89.8863 26.5665C89.9394 26.386 89.9665 26.2089 89.9665 26.036V21.2793H90.5071V25.9588C90.5071 26.3241 90.4442 26.6774 90.3175 27.0154C90.1907 27.3546 89.9968 27.6557 89.7357 27.9176C89.4746 28.1796 89.142 28.3905 88.7379 28.5481C88.3338 28.7068 87.856 28.7861 87.3056 28.7861C86.8203 28.7861 86.3902 28.7133 86.0186 28.5677C85.6448 28.4231 85.3328 28.2242 85.0782 27.9731C84.8236 27.722 84.6329 27.4285 84.5018 27.0915C84.3718 26.7545 84.3068 26.3936 84.3068 26.0099V21.2815L84.3046 21.2793Z" fill="white"/>
<path d="M92.7121 21.2793H95.1378C95.556 21.2793 95.9254 21.326 96.2429 21.4206C96.5614 21.5141 96.8257 21.6478 97.0359 21.8163C97.2483 21.9858 97.4064 22.188 97.5137 22.4217C97.621 22.6565 97.673 22.912 97.673 23.1881C97.673 23.4207 97.6329 23.6359 97.5494 23.8381C97.466 24.0392 97.3479 24.2196 97.1941 24.3805C97.0403 24.5403 96.8539 24.6784 96.6372 24.7925C96.4205 24.9066 96.1768 24.9947 95.9092 25.0577L98.5711 28.6133H97.3198L94.7781 25.1675H93.7196V28.6133H92.711V21.2793H92.7121ZM93.7207 24.7979H94.5419C94.8323 24.7979 95.101 24.7621 95.3502 24.6881C95.5972 24.6142 95.8117 24.5099 95.9926 24.3751C96.1714 24.2392 96.3122 24.0772 96.414 23.8848C96.5148 23.6924 96.5657 23.4783 96.5657 23.2381C96.5657 23.0163 96.5256 22.8141 96.4455 22.6304C96.3642 22.4457 96.2505 22.288 96.1031 22.1565C95.9558 22.0261 95.7824 21.9239 95.5798 21.8511C95.3772 21.7782 95.1541 21.7402 94.9125 21.7402H93.7218V24.799L93.7207 24.7979Z" fill="white"/>
<path d="M102.645 21.1133L106.085 28.6136H105.032L103.919 26.1678H100.683L99.542 28.6136H98.9472L102.443 21.1133H102.647H102.645ZM100.908 25.6928H103.692L102.292 22.7112L100.908 25.6928Z" fill="white"/>
<path d="M107.423 21.2793H108.029L112.958 26.7882V21.2793H113.498V28.7622H113.222L107.98 22.7294V28.6133H107.423V21.2793Z" fill="white"/>
<path d="M116.756 24.9756C116.756 25.4887 116.836 25.9485 116.996 26.355C117.156 26.7627 117.377 27.1083 117.657 27.3899C117.938 27.6714 118.269 27.8866 118.649 28.0366C119.03 28.1855 119.442 28.2605 119.887 28.2605C120.119 28.2605 120.35 28.2084 120.582 28.1018C120.813 27.9975 121.031 27.8627 121.237 27.6975C121.443 27.5333 121.629 27.3507 121.796 27.1485C121.963 26.9442 122.097 26.7464 122.196 26.5496L122.676 26.8822C122.521 27.1322 122.343 27.3725 122.141 27.6007C121.939 27.8301 121.704 28.0312 121.441 28.2073C121.175 28.3823 120.878 28.5214 120.55 28.6269C120.221 28.7312 119.857 28.7834 119.456 28.7834C118.869 28.7834 118.334 28.6823 117.851 28.479C117.369 28.2769 116.958 28.0029 116.614 27.6562C116.271 27.3083 116.005 26.9051 115.818 26.4409C115.63 25.9778 115.535 25.4898 115.535 24.9724C115.535 24.63 115.58 24.2941 115.665 23.968C115.752 23.6419 115.876 23.3353 116.041 23.0495C116.205 22.7636 116.402 22.5016 116.635 22.2646C116.869 22.0277 117.132 21.8222 117.427 21.6516C117.721 21.4798 118.043 21.3472 118.394 21.2526C118.745 21.1592 119.119 21.1113 119.517 21.1113C119.887 21.1113 120.231 21.1635 120.549 21.2679C120.868 21.3744 121.159 21.5135 121.422 21.6874C121.687 21.8635 121.924 22.0657 122.131 22.2972C122.338 22.5266 122.519 22.7657 122.674 23.0125L122.216 23.3506C122.076 23.0995 121.911 22.869 121.722 22.6592C121.533 22.4483 121.333 22.2668 121.122 22.1168C120.911 21.9646 120.694 21.8472 120.474 21.7624C120.253 21.6777 120.043 21.6353 119.846 21.6353C119.423 21.6353 119.025 21.7135 118.65 21.8679C118.274 22.0233 117.946 22.2451 117.665 22.532C117.384 22.819 117.162 23.1679 116.999 23.5799C116.834 23.9908 116.753 24.4539 116.753 24.9702" fill="white"/>
<path d="M129.666 21.2793V21.7543H125.813V24.3773H128.392V24.8523H125.813V28.1383H129.666V28.6133H124.804V21.2793H129.666Z" fill="white"/>
<path d="M136.744 21.2804H139.578C139.952 21.2804 140.295 21.3239 140.605 21.4108C140.917 21.4967 141.182 21.6184 141.404 21.7782C141.626 21.9369 141.801 22.1261 141.924 22.3478C142.05 22.5696 142.112 22.812 142.112 23.0783C142.112 23.2848 142.091 23.4685 142.051 23.6316C142.011 23.7935 141.943 23.9414 141.847 24.0772C141.751 24.212 141.621 24.3381 141.455 24.4555C141.289 24.574 141.084 24.6914 140.839 24.8099H140.777V24.8316H140.87C141.116 24.8697 141.338 24.936 141.537 25.0338C141.736 25.1305 141.906 25.2566 142.047 25.4121C142.189 25.5664 142.297 25.7458 142.372 25.9512C142.446 26.1556 142.484 26.3806 142.484 26.6274C142.484 26.9034 142.428 27.1632 142.314 27.4046C142.2 27.6459 142.036 27.8568 141.823 28.035C141.611 28.2133 141.354 28.3546 141.054 28.4579C140.754 28.5611 140.417 28.6133 140.042 28.6133H136.74V21.2793L136.744 21.2804ZM137.753 24.5816H139.429C139.692 24.5816 139.929 24.5468 140.131 24.4751C140.335 24.4055 140.508 24.3088 140.649 24.1849C140.791 24.0609 140.898 23.9142 140.972 23.7414C141.046 23.5707 141.082 23.3859 141.082 23.1859C141.082 22.9728 141.039 22.7783 140.956 22.6033C140.871 22.4272 140.739 22.2772 140.558 22.1522C140.379 22.0261 140.15 21.9304 139.872 21.8641C139.595 21.7978 139.263 21.7652 138.877 21.7652H137.753V24.5816ZM137.753 28.0774H139.191C139.567 28.0774 139.892 28.0437 140.167 27.9752C140.442 27.9068 140.67 27.8111 140.851 27.6861C141.029 27.5643 141.165 27.4154 141.254 27.2415C141.34 27.0687 141.385 26.8774 141.385 26.6708C141.385 26.4382 141.347 26.2241 141.27 26.0241C141.192 25.8251 141.066 25.6534 140.89 25.5077C140.713 25.361 140.481 25.2469 140.196 25.161C139.911 25.0762 139.564 25.0349 139.153 25.0349H137.752V28.0763L137.753 28.0774Z" fill="white"/>
<path d="M144.435 21.2793H146.86C147.279 21.2793 147.648 21.326 147.965 21.4206C148.284 21.5141 148.548 21.6478 148.758 21.8163C148.971 21.9858 149.129 22.188 149.236 22.4217C149.343 22.6565 149.395 22.912 149.395 23.1881C149.395 23.4207 149.355 23.6359 149.272 23.8381C149.189 24.0392 149.07 24.2196 148.917 24.3805C148.763 24.5403 148.576 24.6784 148.36 24.7925C148.143 24.9066 147.899 24.9947 147.632 25.0577L150.294 28.6133H149.042L146.501 25.1675H145.442V28.6133H144.434V21.2793H144.435ZM145.443 24.7979H146.264C146.555 24.7979 146.824 24.7621 147.073 24.6881C147.32 24.6142 147.534 24.5099 147.715 24.3751C147.894 24.2392 148.035 24.0772 148.137 23.8848C148.237 23.6924 148.288 23.4783 148.288 23.2381C148.288 23.0163 148.248 22.8141 148.168 22.6304C148.087 22.4457 147.973 22.288 147.826 22.1565C147.678 22.0261 147.505 21.9239 147.302 21.8511C147.099 21.7771 146.877 21.7402 146.635 21.7402H145.444V24.799L145.443 24.7979Z" fill="white"/>
<path d="M155.31 28.7853C154.759 28.7853 154.245 28.6832 153.77 28.481C153.293 28.2788 152.88 28.0016 152.527 27.6483C152.174 27.2972 151.896 26.8864 151.695 26.4146C151.493 25.945 151.392 25.4428 151.392 24.9069C151.392 24.371 151.493 23.8851 151.695 23.4253C151.896 22.9655 152.174 22.5623 152.527 22.2198C152.88 21.8764 153.294 21.6068 153.77 21.4089C154.246 21.2122 154.76 21.1133 155.31 21.1133C155.861 21.1133 156.376 21.2111 156.854 21.4089C157.332 21.6068 157.747 21.8764 158.1 22.2198C158.453 22.5623 158.73 22.9644 158.932 23.4253C159.133 23.8862 159.235 24.3808 159.235 24.9069C159.235 25.433 159.133 25.945 158.932 26.4146C158.73 26.8853 158.453 27.2962 158.1 27.6483C157.747 28.0016 157.332 28.2777 156.854 28.481C156.376 28.6832 155.862 28.7853 155.31 28.7853ZM155.31 28.4201C155.748 28.4201 156.135 28.3332 156.471 28.1571C156.807 27.9821 157.09 27.7386 157.318 27.4244C157.545 27.1114 157.717 26.7418 157.836 26.3135C157.954 25.8852 158.012 25.4178 158.012 24.908C158.012 24.3982 157.954 23.9406 157.836 23.5199C157.717 23.1003 157.545 22.7373 157.318 22.4329C157.09 22.1296 156.809 21.8937 156.471 21.7253C156.135 21.5579 155.748 21.4731 155.31 21.4731C154.872 21.4731 154.479 21.5579 154.141 21.7253C153.804 21.8927 153.521 22.1296 153.296 22.4329C153.07 22.7373 152.899 23.1003 152.784 23.5199C152.668 23.9395 152.609 24.4036 152.609 24.908C152.609 25.4124 152.667 25.8852 152.784 26.3135C152.899 26.7418 153.07 27.1125 153.296 27.4244C153.523 27.7386 153.804 27.9831 154.141 28.1571C154.479 28.3332 154.869 28.4201 155.31 28.4201Z" fill="white"/>
<path d="M161.336 21.2793H162.345V24.5316L166.303 21.2793H167.03L163.381 24.3653L168.012 28.6133H166.589L162.345 24.8914V28.6133H161.336V21.2793Z" fill="white"/>
<path d="M174.289 21.2793V21.7543H170.436V24.3773H173.015V24.8523H170.436V28.1383H174.289V28.6133H169.428V21.2793H174.289Z" fill="white"/>
<path d="M176.18 21.2793H178.605C179.024 21.2793 179.393 21.326 179.711 21.4206C180.029 21.5141 180.293 21.6478 180.504 21.8163C180.716 21.9858 180.874 22.188 180.981 22.4217C181.089 22.6565 181.141 22.912 181.141 23.1881C181.141 23.4207 181.101 23.6359 181.017 23.8381C180.934 24.0392 180.816 24.2196 180.662 24.3805C180.508 24.5403 180.322 24.6784 180.105 24.7925C179.888 24.9066 179.644 24.9947 179.377 25.0577L182.039 28.6133H180.787L178.246 25.1675H177.187V28.6133H176.179V21.2793H176.18ZM177.188 24.7979H178.01C178.3 24.7979 178.569 24.7621 178.818 24.6881C179.065 24.6142 179.279 24.5099 179.46 24.3751C179.639 24.2392 179.78 24.0772 179.882 23.8848C179.982 23.6924 180.033 23.4783 180.033 23.2381C180.033 23.0163 179.993 22.8141 179.913 22.6304C179.832 22.4457 179.718 22.288 179.571 22.1565C179.423 22.0261 179.25 21.9239 179.047 21.8511C178.846 21.7771 178.622 21.7402 178.38 21.7402H177.189V24.799L177.188 24.7979Z" fill="white"/>
<path d="M186.114 21.1133L189.553 28.6136H188.5L187.388 26.1678H184.152L183.011 28.6136H182.416L185.912 21.1133H186.116H186.114ZM184.377 25.6928H187.161L185.76 22.7112L184.377 25.6928Z" fill="white"/>
<path d="M195.05 21.6394C194.591 21.6394 194.169 21.7177 193.782 21.8742C193.396 22.0307 193.064 22.2557 192.784 22.5492C192.506 22.8416 192.288 23.196 192.131 23.6112C191.975 24.0264 191.897 24.4906 191.897 25.0015C191.897 25.5124 191.981 25.9841 192.149 26.3983C192.319 26.8135 192.55 27.1657 192.848 27.457C193.144 27.7483 193.49 27.9723 193.886 28.1299C194.283 28.2853 194.711 28.3647 195.172 28.3647C195.341 28.3647 195.504 28.3484 195.664 28.3179C195.824 28.2853 195.976 28.2473 196.115 28.1984C196.257 28.1505 196.39 28.0973 196.513 28.0386C196.637 27.9799 196.746 27.9201 196.841 27.8614V25.2895H195.458V24.8515H197.85V28.1092C197.644 28.2201 197.438 28.3168 197.23 28.3995C197.023 28.4832 196.797 28.5538 196.554 28.6103C196.313 28.668 196.045 28.7114 195.751 28.7408C195.46 28.7701 195.128 28.7853 194.758 28.7853C194.365 28.7853 193.991 28.7397 193.638 28.6495C193.285 28.5593 192.956 28.431 192.654 28.2658C192.351 28.0994 192.078 27.9005 191.835 27.6712C191.591 27.4407 191.384 27.1853 191.212 26.9048C191.04 26.6244 190.907 26.3233 190.814 26.0004C190.723 25.6787 190.677 25.345 190.677 25.0015C190.677 24.658 190.721 24.3254 190.809 23.9971C190.898 23.671 191.024 23.3634 191.186 23.0731C191.351 22.7851 191.55 22.5199 191.786 22.2796C192.025 22.0394 192.291 21.834 192.586 21.659C192.882 21.4861 193.205 21.3513 193.555 21.2568C193.908 21.16 194.279 21.1133 194.672 21.1133C195.039 21.1133 195.383 21.1655 195.699 21.2698C196.018 21.3742 196.308 21.5155 196.57 21.6894C196.834 21.8655 197.07 22.0677 197.279 22.297C197.488 22.5275 197.668 22.7666 197.82 23.0134L197.351 23.3286C197.204 23.0438 197.035 22.797 196.844 22.5851C196.652 22.3731 196.452 22.197 196.245 22.0568C196.039 21.9177 195.831 21.8111 195.626 21.7416C195.42 21.672 195.227 21.6372 195.046 21.6372" fill="white"/>
<path d="M205.033 21.2793V21.7543H201.18V24.3773H203.76V24.8523H201.18V28.1383H205.033V28.6133H200.172V21.2793H205.033Z" fill="white"/>
<path d="M124.459 7.30859V7.78361H120.606V10.4066H123.186V10.8816H120.606V14.1676H124.459V14.6426H119.598V7.30859H124.459Z" fill="white"/>
<path d="M127.31 7.30859H128.318V14.1676H132.002V14.6426H127.31V7.30859Z" fill="white"/>
<path d="M135.513 7.30859H134.505V14.6426H135.513V7.30859Z" fill="white"/>
<path d="M144.433 7.30859V7.78361H141.786V14.6426H140.778V7.78361H138.132V7.30859H144.433Z" fill="white"/>
<path d="M151.903 7.30859V7.78361H148.05V10.4066H150.629V10.8816H148.05V14.1676H151.903V14.6426H147.041V7.30859H151.903Z" fill="white"/>
</g>
<defs>
<clipPath id="clip0_2176_7793">
<rect width="205.759" height="51" fill="white" transform="translate(0 0.884766)"/>
</clipPath>
</defs>
</svg>
