<svg width="10" height="12" viewBox="0 0 10 12" fill="none" xmlns="http://www.w3.org/2000/svg">
<g clip-path="url(#clip0_2519_9870)">
<path d="M5.93101 10.1117C5.76095 10.4888 5.64853 10.898 5.60547 11.3271L9.20429 10.5621C9.37435 10.1851 9.48668 9.77582 9.52983 9.34668L5.93101 10.1117Z" fill="#142533"/>
<path d="M9.20446 8.26903C9.37452 7.89203 9.48693 7.48274 9.53 7.0536L6.72663 7.64983V6.50366L9.20437 5.97712C9.37444 5.60012 9.48685 5.19082 9.52991 4.76168L6.72654 5.3574V1.23543C6.29699 1.47662 5.91549 1.79766 5.60538 2.17636V5.59579L4.48422 5.8341V0.674805C4.05466 0.915907 3.67317 1.23704 3.36306 1.61573V6.07232L0.854456 6.60539C0.684396 6.98239 0.571898 7.39169 0.528747 7.82082L3.36306 7.21849V8.66188L0.325539 9.30737C0.155479 9.68437 0.0430662 10.0937 0 10.5228L3.17944 9.84714C3.43826 9.7933 3.66071 9.64028 3.80534 9.4297L4.38843 8.56524V8.56507C4.44896 8.47563 4.48422 8.3678 4.48422 8.25165V6.98018L5.60538 6.74188V9.03422L9.20437 8.26886L9.20446 8.26903Z" fill="#142533"/>
</g>
<defs>
<clipPath id="clip0_2519_9870">
<rect width="9.53" height="10.6512" fill="white" transform="translate(0 0.674805)"/>
</clipPath>
</defs>
</svg>
