<svg width="357" height="88" viewBox="0 0 357 88" fill="none" xmlns="http://www.w3.org/2000/svg">
<g clip-path="url(#clip0_2176_9278)">
<path d="M86.3194 46.0781C86.9306 43.1794 87.2344 40.0294 87.2344 36.6281C87.2344 31.8956 86.4506 27.345 84.87 22.98C83.2913 18.615 80.9025 14.715 77.6981 11.2838C74.4938 7.84875 70.4794 5.10938 65.6475 3.06563C60.8269 1.02938 55.1588 0 48.6637 0C43.9275 0 39.8438 0.5175 36.4031 1.53562C32.9737 2.55562 30.0206 3.96938 27.5625 5.7825C25.1025 7.59188 23.085 9.77437 21.5062 12.33C19.9275 14.88 18.7219 17.6869 17.8837 20.7544L19.8356 21.7256C20.0231 20.4281 20.5781 18.7106 21.5044 16.575C22.4344 14.4375 23.7994 12.3713 25.6087 10.3763C27.4219 8.37938 29.7 6.66375 32.4375 5.22188C35.175 3.78188 38.4019 3.06563 42.1162 3.06563C47.13 3.06563 51.6562 4.38938 55.695 7.035C59.7338 9.67688 63.1444 13.0912 65.9287 17.2687C68.715 21.4462 70.8713 26.0887 72.4013 31.1944C72.4331 31.29 72.4594 31.3819 72.4856 31.4775C72.4369 31.3894 72.39 31.3087 72.3375 31.2206C70.3856 27.9244 67.9688 25.0912 65.0925 22.7213C62.2125 20.3587 59.0137 18.5006 55.4869 17.1525C51.9562 15.8081 48.3375 15.135 44.6231 15.135C40.26 15.135 35.9869 15.855 31.8094 17.2894C27.6319 18.7294 23.8706 20.9381 20.5294 23.9044C17.19 26.8762 14.4956 30.6394 12.4519 35.1844C11.805 36.6281 11.2594 38.16 10.8169 39.7781H0V41.8706H10.3125C9.69563 44.7769 9.38812 47.9306 9.38812 51.3394C9.38812 56.0775 10.1719 60.6244 11.7563 64.9875C13.335 69.3525 15.72 73.2525 18.9281 76.6838C22.1287 80.1188 26.1469 82.8619 30.975 84.9C35.7994 86.9437 41.4637 87.9675 47.9625 87.9675C52.695 87.9675 56.7788 87.4556 60.2175 86.4375C63.6544 85.4119 66.6 84 69.06 82.185C71.52 80.3756 73.5412 78.195 75.1144 75.6431C76.695 73.0875 77.9044 70.2806 78.7388 67.2188L76.7887 66.2419C76.6012 67.5431 76.0462 69.2569 75.1144 71.3906C74.1862 73.53 72.8194 75.5944 71.0119 77.5912C69.2025 79.5919 66.9244 81.3037 64.1869 82.7456C61.4456 84.1856 58.2225 84.9 54.5081 84.9C49.4944 84.9 44.9644 83.5781 40.9313 80.9362C36.8925 78.2906 33.4762 74.8763 30.6975 70.6987C27.9075 66.5212 25.7512 61.8787 24.2194 56.7712C24.1894 56.6756 24.1631 56.5763 24.1369 56.4806C24.1838 56.5706 24.2362 56.6588 24.2887 56.7487C26.2406 60.0413 28.6538 62.8744 31.53 65.2425C34.41 67.6125 37.6106 69.4688 41.1394 70.8131C44.6663 72.1575 48.2887 72.8306 52.0031 72.8306C56.3681 72.8306 60.6356 72.1144 64.8131 70.6744C68.9963 69.2344 72.7519 67.0312 76.0912 64.0594C79.4362 61.0894 82.1306 57.3262 84.1706 52.7812C84.8213 51.3281 85.3669 49.7906 85.8094 48.165H96.6225V46.0744H86.3175L86.3194 46.0781ZM23.5912 31.2225C24.4294 28.5769 25.6556 26.2294 27.2831 24.1856C28.905 22.1475 30.8794 20.5462 33.2063 19.3837C35.5219 18.2212 38.3081 17.6437 41.5612 17.6437C44.6231 17.6437 47.3831 18.4744 49.8469 20.1469C52.3031 21.8212 54.4163 23.8388 56.1806 26.2069C57.9412 28.575 59.3812 31.0106 60.4969 33.5156C61.6069 36.0244 62.3963 38.1113 62.8669 39.78H22.0594C22.2469 36.7219 22.7587 33.8625 23.5912 31.2206M73.035 56.7544C72.1931 59.4 70.965 61.7419 69.3394 63.7856C67.7175 65.8256 65.7431 67.4306 63.4219 68.5894C61.1006 69.7519 58.3181 70.335 55.065 70.335C52.0031 70.335 49.2431 69.4969 46.7794 67.8262C44.3194 66.1575 42.2062 64.1344 40.4419 61.7663C38.6794 59.4019 37.2431 56.9625 36.1294 54.4556C35.0138 51.9525 34.2244 49.8619 33.7612 48.1912H74.5612C74.3794 51.255 73.8675 54.1088 73.035 56.7563M74.7019 46.0988H22.1175C21.9862 44.6813 21.9225 43.2694 21.9225 41.8744H74.5069C74.6381 43.2881 74.7019 44.685 74.7019 46.0781V46.0988Z" fill="#2A5F8B"/>
<path d="M127.125 72.5472H125.25C124.701 72.5472 124.234 72.4309 123.842 72.1759C123.471 75.0672 121.457 76.8466 118.35 76.8466C114.911 76.8466 113.192 74.8141 113.192 70.7303V67.3309H114.345V70.6534C114.345 72.3522 114.716 73.7209 115.44 74.7559C116.162 75.7909 117.236 76.3178 118.624 76.3178C119.758 76.3178 120.716 75.8284 121.519 74.8516C122.319 73.7959 122.73 72.4478 122.73 70.8278V67.0347L122.396 64.6309L123.883 64.2578V69.5734C123.883 70.9234 124.491 71.6059 125.7 71.6059H127.127V72.5434L127.125 72.5472ZM119.445 66.9016C119.445 67.5259 119.132 67.8391 118.487 67.8391C117.842 67.8391 117.531 67.5259 117.531 66.9016C117.531 66.3728 117.941 65.9434 118.487 65.9434C118.976 65.9434 119.445 66.3747 119.445 66.9016Z" fill="#2A5F8B"/>
<path d="M129.236 71.5894H126.578V72.5475H129.236V71.5894Z" fill="#2A5F8B"/>
<path d="M131.265 71.5894H128.606V72.5475H131.265V71.5894Z" fill="#2A5F8B"/>
<path d="M133.299 71.5894H130.64V72.5475H133.299V71.5894Z" fill="#2A5F8B"/>
<path d="M135.332 71.5894H132.673V72.5475H135.332V71.5894Z" fill="#2A5F8B"/>
<path d="M141.72 72.5492H140.488C139.648 72.5492 139.003 72.2736 138.534 71.728C138.084 72.2736 137.479 72.5492 136.699 72.5492H134.569V71.6098H136.149C137.362 71.6098 137.966 70.9086 137.966 69.5005V67.0967L137.653 64.633L139.159 64.2617V69.5173C139.159 70.9067 139.744 71.608 140.936 71.608H141.718V72.5473L141.72 72.5492ZM136.62 76.0273C136.62 76.573 136.326 76.8467 135.759 76.8467C135.193 76.8467 134.901 76.573 134.901 76.0086C134.901 75.4442 135.195 75.148 135.759 75.148C136.211 75.148 136.62 75.5398 136.62 76.0273ZM139.198 76.0273C139.198 76.573 138.904 76.8467 138.319 76.8467C137.734 76.8467 137.46 76.573 137.46 76.0086C137.46 75.4442 137.752 75.148 138.319 75.148C138.808 75.148 139.198 75.5398 139.198 76.0273Z" fill="#2A5F8B"/>
<path d="M143.889 71.5894H141.23V72.5475H143.889V71.5894Z" fill="#2A5F8B"/>
<path d="M145.921 71.5894H143.263V72.5475H145.921V71.5894Z" fill="#2A5F8B"/>
<path d="M147.953 71.5894H145.294V72.5475H147.953V71.5894Z" fill="#2A5F8B"/>
<path d="M149.985 71.5894H147.326V72.5475H149.985V71.5894Z" fill="#2A5F8B"/>
<path d="M158.425 64.262L158.269 66.1764V69.1857C158.269 71.4339 156.958 72.5476 154.341 72.5476H149.359V71.6101H152.387C151.823 70.8845 151.528 69.9301 151.528 68.7189C151.528 67.2526 151.939 66.0789 152.74 65.1995C153.561 64.322 154.654 63.8701 156.023 63.8701C156.902 63.8701 157.703 64.007 158.426 64.262M157.078 66.2945L156.883 64.8114C156.392 64.6726 155.965 64.5957 155.593 64.5957C154.635 64.5957 153.891 64.967 153.403 65.7095C152.972 66.3526 152.76 67.2151 152.76 68.3289C152.76 70.262 153.54 71.612 154.791 71.612C156.431 71.612 157.255 70.5376 157.255 68.4076C157.255 67.8807 157.195 67.1757 157.078 66.2964" fill="#2A5F8B"/>
<path d="M163.192 59.1617H159.635V58.6554H160.299V58.3217C160.299 57.2473 160.73 56.7017 161.61 56.7017C162.02 56.7017 162.39 56.8573 162.723 57.191L162.508 57.5042C162.292 57.3279 162.058 57.2304 161.844 57.2304C161.22 57.2304 160.906 57.6223 160.906 58.4229V58.6573H162L162.509 58.5785L163.192 59.1635V59.1617ZM165.088 72.5473H163.408C161.748 72.5473 160.906 71.6492 160.906 69.8492V62.6192L160.593 60.2942L162.078 59.9417V69.4967C162.078 70.9048 162.686 71.6079 163.876 71.6079H165.088V72.5454V72.5473Z" fill="#2A5F8B"/>
<path d="M167.218 71.5894H164.56V72.5475H167.218V71.5894Z" fill="#2A5F8B"/>
<path d="M169.251 71.5894H166.592V72.5475H169.251V71.5894Z" fill="#2A5F8B"/>
<path d="M171.283 71.5894H168.625V72.5475H171.283V71.5894Z" fill="#2A5F8B"/>
<path d="M173.313 71.5894H170.654V72.5475H173.313V71.5894Z" fill="#2A5F8B"/>
<path d="M179.704 72.5492H178.472C177.632 72.5492 176.985 72.2754 176.518 71.7279C176.068 72.2773 175.462 72.5492 174.682 72.5492H172.552V71.6117H174.133C175.344 71.6117 175.95 70.9086 175.95 69.5004V67.0967L175.637 64.6329L177.142 64.2617V69.5192C177.142 70.9067 177.727 71.6098 178.92 71.6098H179.702V72.5473L179.704 72.5492ZM175.228 60.8042C175.228 61.3498 174.934 61.6236 174.349 61.6236C173.764 61.6236 173.49 61.3498 173.49 60.7854C173.49 60.2211 173.782 59.9248 174.349 59.9248C174.838 59.9248 175.228 60.3167 175.228 60.8042ZM177.808 60.8042C177.808 61.3498 177.514 61.6236 176.949 61.6236C176.385 61.6236 176.089 61.3498 176.089 60.7854C176.089 60.2211 176.383 59.9248 176.949 59.9248C177.416 59.9248 177.808 60.3167 177.808 60.8042Z" fill="#2A5F8B"/>
<path d="M181.873 71.5894H179.215V72.5475H181.873V71.5894Z" fill="#2A5F8B"/>
<path d="M183.903 71.5894H181.245V72.5475H183.903V71.5894Z" fill="#2A5F8B"/>
<path d="M185.935 71.5894H183.277V72.5475H185.935V71.5894Z" fill="#2A5F8B"/>
<path d="M187.968 71.5894H185.309V72.5475H187.968V71.5894Z" fill="#2A5F8B"/>
<path d="M193.048 69.851C193.048 71.5497 192.092 72.5491 190.526 72.5491H187.264V71.6116H190.058C191.288 71.6116 191.893 70.9085 191.893 69.5004V62.6997L191.58 60.296L193.046 59.9229V69.851H193.048Z" fill="#2A5F8B"/>
<path d="M196.8 59.9248L196.624 62.2479V72.5492H195.452V62.2479L195.176 60.0617L196.8 59.9248Z" fill="#2A5F8B"/>
<path d="M211.18 72.5493H209.852C209.245 72.5493 208.697 72.3918 208.211 72.0974C207.838 71.8631 207.583 71.6081 207.448 71.3362C206.805 71.8068 205.926 72.0618 204.812 72.0974C203.014 72.0974 201.842 70.6912 201.842 68.2893C201.842 67.0368 202.234 66.0412 202.995 65.2799C203.775 64.5187 204.791 64.1456 206.044 64.1456H207.079L206.981 63.0712C207.606 62.9137 208.114 62.7974 208.523 62.6999V69.5193C208.523 70.9087 209.13 71.6099 210.343 71.6099H211.181V72.5493H211.18ZM207.311 70.7324L207.214 64.7699C206.685 64.7699 206.256 64.7699 205.903 64.7906C205.142 64.8093 204.476 65.1037 203.912 65.7074C203.344 66.3131 203.072 67.0574 203.072 67.9556C203.091 70.0462 203.813 71.1018 205.279 71.1018C205.886 71.1018 206.569 70.9837 207.311 70.7306M205.766 60.2756C205.766 60.8437 205.474 61.1156 204.908 61.1156C204.341 61.1156 204.028 60.8212 204.028 60.2362C204.028 59.6512 204.323 59.3774 204.908 59.3774C205.378 59.3774 205.766 59.7487 205.766 60.2756ZM208.328 60.2756C208.328 60.8437 208.054 61.1156 207.488 61.1156C206.921 61.1156 206.629 60.8212 206.629 60.2362C206.629 59.6512 206.921 59.3774 207.488 59.3774C207.938 59.3774 208.328 59.7487 208.328 60.2756Z" fill="#2A5F8B"/>
<path d="M213.31 71.5894H210.651V72.5475H213.31V71.5894Z" fill="#2A5F8B"/>
<path d="M215.342 71.5894H212.683V72.5475H215.342V71.5894Z" fill="#2A5F8B"/>
<path d="M217.375 71.5894H214.716V72.5475H217.375V71.5894Z" fill="#2A5F8B"/>
<path d="M219.404 71.5894H216.745V72.5475H219.404V71.5894Z" fill="#2A5F8B"/>
<path d="M233.983 72.5476H218.781V71.6101H221.672V62.8557L221.438 60.7051L223.039 60.5288L222.842 62.8557L222.686 70.0857C224.483 66.3151 226.77 64.4363 229.543 64.4363C230.854 64.4363 231.91 64.7494 232.729 65.3738C233.569 65.9794 233.98 66.7819 233.98 67.7588V72.5476H233.983ZM232.772 71.6101V68.1113C232.772 66.4126 231.364 65.4357 229.118 65.4357C226.871 65.4357 224.779 67.4869 222.941 71.6101H232.772Z" fill="#2A5F8B"/>
<path d="M240.645 72.5475H238.965C237.306 72.5475 236.464 71.6494 236.464 69.8494V62.6194L236.151 60.2944L237.634 59.9419V69.4969C237.634 70.905 238.242 71.6081 239.432 71.6081H240.643V72.5456L240.645 72.5475Z" fill="#2A5F8B"/>
<path d="M242.775 71.5894H240.116V72.5475H242.775V71.5894Z" fill="#2A5F8B"/>
<path d="M244.806 71.5894H242.147V72.5475H244.806V71.5894Z" fill="#2A5F8B"/>
<path d="M246.839 71.5894H244.181V72.5475H246.839V71.5894Z" fill="#2A5F8B"/>
<path d="M248.872 71.5894H246.213V72.5475H248.872V71.5894Z" fill="#2A5F8B"/>
<path d="M262.706 69.851C262.706 71.4916 261.75 72.5491 260.244 72.5491C259.131 72.5491 258.231 72.0223 257.546 70.9479C257.173 72.0223 256.393 72.5491 255.24 72.5491C254.282 72.5491 253.442 72.1179 252.757 71.2779C252.66 71.4748 252.523 71.6698 252.347 71.846C251.897 72.3129 251.291 72.5491 250.53 72.5491H248.242V71.6116H250.041C251.252 71.6116 251.857 70.9085 251.857 69.5004L251.876 65.3979L253.029 65.1035V70.0066C253.029 70.2429 253.011 70.4585 252.951 70.6704C253.575 71.2591 254.164 71.5498 254.728 71.5498C255.921 71.5498 256.526 70.8673 256.526 69.4798V65.396L257.679 65.1016V70.3779C258.362 71.1579 259.067 71.5498 259.77 71.5498C260.942 71.5498 261.529 70.8673 261.529 69.4798V67.0948L261.195 64.631L262.701 64.2598V69.8491L262.706 69.851Z" fill="#2A5F8B"/>
<path d="M275.6 72.5473H271.633C271.417 74.8348 270.206 76.2805 267.961 76.8861L267.646 76.3761C268.625 76.0048 269.349 75.3992 269.836 74.5592C270.208 73.9348 270.404 73.2692 270.421 72.5473H268.096C267.178 72.5473 266.416 72.2548 265.848 71.668C265.241 71.0042 264.95 70.1042 264.95 68.9736C264.95 67.5448 265.342 66.4123 266.103 65.5517C266.883 64.693 267.899 64.2617 269.15 64.2617H271.633V71.6098H275.6V72.5473ZM270.421 71.6098V64.8861H269.013C267.196 64.8861 266.18 66.3148 266.18 68.5817C266.18 70.5936 266.923 71.6098 268.389 71.6098H270.421Z" fill="#2A5F8B"/>
<path d="M277.71 71.5894H275.051V72.5475H277.71V71.5894Z" fill="#2A5F8B"/>
<path d="M279.744 71.5894H277.085V72.5475H279.744V71.5894Z" fill="#2A5F8B"/>
<path d="M281.775 71.5894H279.116V72.5475H281.775V71.5894Z" fill="#2A5F8B"/>
<path d="M286.854 69.8515C286.854 71.5502 285.898 72.5496 284.332 72.5496H281.07V71.6121H283.863C285.093 71.6121 285.699 70.909 285.699 69.5008V62.7002L285.386 60.2965L286.852 59.9233V69.8515H286.854Z" fill="#2A5F8B"/>
<path d="M309.735 72.5476H307.86C307.001 72.5476 306.354 72.2738 305.906 71.7282C305.456 72.2738 304.832 72.5476 303.992 72.5476H295.217C293.205 72.5476 291.894 70.9276 291.894 68.3476C291.894 67.3501 292.091 66.4726 292.502 65.7282H293.303C292.911 66.3132 292.718 67.0369 292.718 67.9163C292.718 70.1644 293.753 71.6082 295.416 71.6082H303.523C304.716 71.6082 305.321 70.9069 305.321 69.5176V67.0951L305.008 64.6313L306.493 64.2601V69.5157C306.493 70.9051 307.101 71.6063 308.31 71.6063H309.737V72.5438L309.735 72.5476ZM298.89 64.3613C298.89 64.9294 298.616 65.2201 298.05 65.2201C297.484 65.2201 297.191 64.9276 297.191 64.3426C297.191 63.7576 297.484 63.4819 298.05 63.4819C298.5 63.4819 298.89 63.8738 298.89 64.3613ZM301.47 64.3613C301.47 64.9294 301.176 65.2201 300.611 65.2201C300.047 65.2201 299.751 64.9276 299.751 64.3426C299.751 63.7576 300.045 63.4819 300.611 63.4819C301.078 63.4819 301.47 63.8738 301.47 64.3613Z" fill="#2A5F8B"/>
<path d="M311.59 71.5894H308.931V72.5475H311.59V71.5894Z" fill="#2A5F8B"/>
<path d="M313.623 71.5894H310.964V72.5475H313.623V71.5894Z" fill="#2A5F8B"/>
<path d="M315.656 71.5894H312.997V72.5475H315.656V71.5894Z" fill="#2A5F8B"/>
<path d="M317.687 71.5894H315.028V72.5475H317.687V71.5894Z" fill="#2A5F8B"/>
<path d="M324.077 72.5492H322.845C322.005 72.5492 321.36 72.2736 320.891 71.728C320.441 72.2736 319.836 72.5492 319.056 72.5492H316.926V71.6098H318.506C319.719 71.6098 320.323 70.9086 320.323 69.5005V67.0967L320.01 64.633L321.516 64.2617V69.5173C321.516 70.9067 322.101 71.608 323.293 71.608H324.075V72.5473L324.077 72.5492ZM318.977 76.0273C318.977 76.573 318.683 76.8467 318.116 76.8467C317.55 76.8467 317.258 76.573 317.258 76.0086C317.258 75.4442 317.552 75.148 318.116 75.148C318.568 75.148 318.977 75.5398 318.977 76.0273ZM321.555 76.0273C321.555 76.573 321.261 76.8467 320.676 76.8467C320.091 76.8467 319.817 76.573 319.817 76.0086C319.817 75.4442 320.109 75.148 320.676 75.148C321.165 75.148 321.555 75.5398 321.555 76.0273Z" fill="#2A5F8B"/>
<path d="M326.246 71.5894H323.587V72.5475H326.246V71.5894Z" fill="#2A5F8B"/>
<path d="M328.277 71.5894H325.618V72.5475H328.277V71.5894Z" fill="#2A5F8B"/>
<path d="M330.31 71.5894H327.651V72.5475H330.31V71.5894Z" fill="#2A5F8B"/>
<path d="M332.342 71.5894H329.683V72.5475H332.342V71.5894Z" fill="#2A5F8B"/>
<path d="M338.73 72.5476H337.498C336.658 72.5476 336.013 72.2739 335.544 71.7283C335.094 72.2739 334.489 72.5476 333.709 72.5476H331.579V71.6101H333.159C334.373 71.6101 334.976 70.907 334.976 69.4989V62.7564L334.663 60.2945L336.169 59.9214V69.5176C336.169 70.9051 336.754 71.6083 337.946 71.6083H338.728V72.5458L338.73 72.5476Z" fill="#2A5F8B"/>
<path d="M340.899 71.5894H338.241V72.5475H340.899V71.5894Z" fill="#2A5F8B"/>
<path d="M342.932 71.5894H340.273V72.5475H342.932V71.5894Z" fill="#2A5F8B"/>
<path d="M344.965 71.5894H342.306V72.5475H344.965V71.5894Z" fill="#2A5F8B"/>
<path d="M346.995 71.5894H344.336V72.5475H346.995V71.5894Z" fill="#2A5F8B"/>
<path d="M347.816 76.0274C347.816 76.5956 347.521 76.8862 346.936 76.8862C346.351 76.8862 346.078 76.5937 346.078 76.0274C346.078 75.4612 346.37 75.1481 346.936 75.1481C347.426 75.1481 347.816 75.5399 347.816 76.0274ZM351.449 69.853C351.449 71.5518 350.491 72.5512 348.946 72.5512H346.288V71.6118H348.457C349.67 71.6118 350.274 70.9105 350.274 69.5024V67.0593L349.961 64.6349L351.448 64.2637V69.853H351.449ZM350.394 76.0274C350.394 76.5956 350.099 76.8862 349.535 76.8862C348.971 76.8862 348.674 76.5937 348.674 76.0274C348.674 75.4612 348.969 75.1481 349.535 75.1481C350.002 75.1481 350.394 75.5399 350.394 76.0274Z" fill="#2A5F8B"/>
<path d="M356.099 76.3573H352.542V75.8323H353.206V75.5379C353.206 74.4429 353.637 73.8954 354.515 73.8954C354.927 73.8954 355.317 74.0511 355.649 74.3848L355.434 74.6792C355.199 74.5217 354.984 74.4429 354.77 74.4429C354.127 74.4429 353.814 74.8348 353.832 75.6167V75.8323H354.927L355.417 75.7723L356.099 76.3573ZM355.201 59.9248L355.025 62.2498V72.5511H353.853V62.2498L353.577 60.0617L355.201 59.9248Z" fill="#2A5F8B"/>
<path d="M115.663 35.1826H113.918V47.8332H115.663V35.1826Z" fill="#2A5F8B"/>
<path d="M119.687 35.1826H120.737L129.266 44.6851V35.1826H130.202V48.0901H129.724L120.651 37.6839V47.8332H119.687V35.1826Z" fill="#2A5F8B"/>
<path d="M138.166 47.3287C138.504 47.3287 138.836 47.2856 139.164 47.1993C139.49 47.1131 139.783 46.9856 140.041 46.8168C140.298 46.65 140.506 46.4418 140.666 46.1981C140.823 45.9525 140.904 45.6675 140.904 45.3431C140.904 44.9943 140.812 44.6737 140.626 44.3887C140.441 44.1018 140.199 43.8356 139.893 43.5918C139.588 43.3462 139.235 43.1156 138.84 42.8943C138.442 42.675 138.031 42.4575 137.613 42.2418C137.169 42.0131 136.726 41.775 136.291 41.5312C135.856 41.2856 135.465 41.0081 135.12 40.7006C134.773 40.3931 134.491 40.0425 134.279 39.6525C134.068 39.2625 133.961 38.805 133.961 38.2837C133.961 37.8 134.047 37.35 134.218 36.9393C134.388 36.525 134.641 36.1687 134.977 35.865C135.311 35.5631 135.723 35.325 136.211 35.1543C136.702 34.9837 137.263 34.8975 137.891 34.8975C138.455 34.8975 138.963 34.9593 139.411 35.0868C139.861 35.2143 140.253 35.4037 140.595 35.655C140.936 35.9081 141.225 36.2175 141.468 36.585C141.708 36.9525 141.911 37.3818 142.068 37.8637L141.307 38.2181C141.187 37.8468 141.024 37.5093 140.825 37.2018C140.625 36.8943 140.381 36.63 140.094 36.4106C139.809 36.1912 139.475 36.0225 139.095 35.8987C138.712 35.7787 138.279 35.7187 137.795 35.7187C137.362 35.7187 136.985 35.775 136.661 35.8856C136.336 35.9962 136.068 36.1443 135.855 36.3262C135.641 36.5081 135.48 36.7106 135.373 36.9356C135.264 37.1625 135.211 37.3931 135.211 37.6275C135.211 37.9143 135.303 38.1862 135.491 38.445C135.678 38.7018 135.926 38.9475 136.237 39.1837C136.544 39.42 136.897 39.6468 137.291 39.8662C137.684 40.0837 138.09 40.3012 138.502 40.5187C138.96 40.7531 139.419 41.0025 139.876 41.2668C140.332 41.5312 140.746 41.8256 141.116 42.1443C141.487 42.4668 141.785 42.8212 142.02 43.2056C142.25 43.59 142.366 44.0212 142.366 44.4975C142.366 45 142.275 45.4725 142.091 45.915C141.905 46.3575 141.633 46.7418 141.27 47.07C140.908 47.3962 140.454 47.655 139.91 47.8462C139.366 48.0375 138.735 48.1331 138.016 48.1331C137.445 48.1331 136.929 48.0656 136.471 47.9343C136.014 47.7993 135.607 47.6025 135.253 47.3456C134.9 47.0887 134.598 46.7737 134.347 46.4006C134.094 46.0293 133.884 45.6037 133.713 45.1275L134.523 44.7937C134.651 45.195 134.831 45.5512 135.063 45.8606C135.294 46.1737 135.566 46.44 135.879 46.6575C136.192 46.8768 136.541 47.0437 136.927 47.16C137.315 47.2725 137.73 47.3306 138.168 47.3306" fill="#2A5F8B"/>
<path d="M145.903 35.1826H147.649V43.397C147.649 43.937 147.746 44.4451 147.941 44.9176C148.136 45.392 148.412 45.8064 148.77 46.1626C149.128 46.5189 149.565 46.8001 150.073 47.0082C150.583 47.2145 151.15 47.3195 151.78 47.3195C152.151 47.3195 152.501 47.2632 152.841 47.1507C153.176 47.0401 153.491 46.8882 153.78 46.6989C154.069 46.5076 154.331 46.2845 154.568 46.0295C154.802 45.7745 155.005 45.5007 155.171 45.2101C155.34 44.9176 155.47 44.6157 155.563 44.3026C155.655 43.9914 155.702 43.6857 155.702 43.3876V35.1826H156.638V43.2545C156.638 43.8845 156.529 44.4939 156.31 45.077C156.09 45.662 155.755 46.1814 155.303 46.6332C154.851 47.0851 154.275 47.4489 153.576 47.7207C152.876 47.9945 152.05 48.1314 151.097 48.1314C150.257 48.1314 149.513 48.0057 148.87 47.7545C148.223 47.5051 147.683 47.162 147.242 46.7289C146.801 46.2957 146.471 45.7895 146.245 45.2082C146.02 44.627 145.907 44.0045 145.907 43.3426V35.1864L145.903 35.1826Z" fill="#2A5F8B"/>
<path d="M160.453 35.1826H164.651C165.375 35.1826 166.015 35.2632 166.564 35.4264C167.115 35.5876 167.573 35.8182 167.936 36.1089C168.304 36.4014 168.578 36.7501 168.763 37.1532C168.949 37.5582 169.039 37.9989 169.039 38.4751C169.039 38.8764 168.97 39.2476 168.825 39.5964C168.681 39.9432 168.476 40.2545 168.21 40.532C167.944 40.8076 167.621 41.0457 167.246 41.2426C166.871 41.4395 166.45 41.5914 165.986 41.7001L170.593 47.8332H168.428L164.029 41.8895H162.197V47.8332H160.451V35.1826H160.453ZM162.199 41.252H163.62C164.123 41.252 164.588 41.1901 165.019 41.0626C165.446 40.9351 165.818 40.7551 166.131 40.5226C166.44 40.2882 166.684 40.0089 166.86 39.677C167.035 39.3451 167.123 38.9757 167.123 38.5614C167.123 38.1789 167.053 37.8301 166.915 37.5132C166.774 37.1945 166.577 36.9226 166.322 36.6957C166.067 36.4707 165.767 36.2945 165.416 36.1689C165.066 36.0432 164.68 35.9776 164.261 35.9776H162.201V41.2539L162.199 41.252Z" fill="#2A5F8B"/>
<path d="M177.645 34.8975L183.598 47.835H181.776L179.85 43.6162H174.25L172.275 47.835H171.246L177.296 34.8975H177.649H177.645ZM174.64 42.7968H179.458L177.034 37.6537L174.64 42.7968Z" fill="#2A5F8B"/>
<path d="M185.915 35.1826H186.963L195.494 44.6851V35.1826H196.428V48.0901H195.952L186.879 37.6839V47.8332H185.915V35.1826Z" fill="#2A5F8B"/>
<path d="M202.067 41.5558C202.067 42.4408 202.206 43.2339 202.481 43.9351C202.759 44.6383 203.141 45.2345 203.627 45.7201C204.113 46.2058 204.684 46.577 205.343 46.8358C206.003 47.0926 206.715 47.222 207.486 47.222C207.887 47.222 208.286 47.132 208.688 46.9483C209.089 46.7683 209.466 46.5358 209.822 46.2508C210.178 45.9676 210.501 45.6526 210.789 45.3039C211.078 44.9514 211.311 44.6101 211.481 44.2708L212.312 44.8445C212.044 45.2758 211.736 45.6901 211.386 46.0839C211.037 46.4795 210.63 46.8264 210.174 47.1301C209.715 47.432 209.201 47.672 208.633 47.8539C208.063 48.0339 207.433 48.1239 206.739 48.1239C205.723 48.1239 204.797 47.9495 203.963 47.5989C203.128 47.2501 202.416 46.7776 201.821 46.1795C201.227 45.5795 200.768 44.8839 200.443 44.0833C200.119 43.2845 199.954 42.4426 199.954 41.5501C199.954 40.9595 200.031 40.3801 200.179 39.8176C200.329 39.2551 200.544 38.7264 200.829 38.2333C201.113 37.7401 201.454 37.2883 201.857 36.8795C202.262 36.4708 202.718 36.1164 203.228 35.822C203.738 35.5258 204.294 35.297 204.902 35.1339C205.509 34.9726 206.156 34.8901 206.844 34.8901C207.486 34.8901 208.08 34.9801 208.631 35.1601C209.183 35.3439 209.687 35.5839 210.143 35.8839C210.6 36.1876 211.011 36.5364 211.369 36.9358C211.727 37.3314 212.04 37.7439 212.308 38.1695L211.517 38.7526C211.273 38.3195 210.988 37.922 210.662 37.5601C210.334 37.1964 209.989 36.8833 209.623 36.6245C209.258 36.362 208.883 36.1595 208.502 36.0133C208.119 35.867 207.756 35.7939 207.414 35.7939C206.683 35.7939 205.993 35.9289 205.344 36.1951C204.694 36.4633 204.126 36.8458 203.64 37.3408C203.154 37.8358 202.77 38.4376 202.487 39.1483C202.202 39.857 202.061 40.6558 202.061 41.5464" fill="#2A5F8B"/>
<path d="M224.41 35.1826V36.002H217.743V40.5264H222.205V41.3457H217.743V47.0139H224.41V47.8332H215.995V35.1826H224.41Z" fill="#2A5F8B"/>
<path d="M236.661 35.1845H241.564C242.213 35.1845 242.805 35.2595 243.341 35.4095C243.881 35.5576 244.341 35.7676 244.725 36.0432C245.11 36.317 245.411 36.6432 245.625 37.0257C245.843 37.4082 245.95 37.8264 245.95 38.2857C245.95 38.642 245.914 38.9589 245.845 39.2401C245.775 39.5195 245.657 39.7745 245.492 40.0089C245.325 40.2414 245.1 40.4589 244.813 40.6614C244.526 40.8657 244.17 41.0682 243.746 41.2726H243.64V41.3101H243.801C244.226 41.3757 244.611 41.4901 244.956 41.6589C245.299 41.8257 245.593 42.0432 245.837 42.3114C246.083 42.5776 246.27 42.887 246.4 43.2414C246.529 43.5939 246.595 43.982 246.595 44.4076C246.595 44.8839 246.497 45.332 246.3 45.7482C246.103 46.1645 245.818 46.5282 245.451 46.8357C245.083 47.1432 244.639 47.387 244.12 47.5651C243.6 47.7432 243.017 47.8332 242.368 47.8332H236.653V35.1826L236.661 35.1845ZM238.406 40.8789H241.307C241.763 40.8789 242.171 40.8189 242.522 40.6951C242.875 40.5751 243.175 40.4082 243.418 40.1945C243.664 39.9807 243.85 39.7276 243.977 39.4295C244.105 39.1351 244.168 38.8164 244.168 38.4714C244.168 38.1039 244.093 37.7682 243.949 37.4664C243.803 37.1626 243.574 36.9039 243.261 36.6882C242.951 36.4707 242.554 36.3057 242.074 36.1914C241.594 36.077 241.02 36.0207 240.351 36.0207H238.406V40.8789ZM238.406 46.9089H240.895C241.545 46.9089 242.108 46.8507 242.584 46.7326C243.06 46.6145 243.454 46.4495 243.767 46.2339C244.076 46.0239 244.311 45.767 244.465 45.467C244.615 45.1689 244.691 44.8389 244.691 44.4826C244.691 44.0814 244.626 43.712 244.493 43.367C244.358 43.0239 244.14 42.7276 243.835 42.4764C243.529 42.2232 243.128 42.0264 242.635 41.8782C242.141 41.732 241.54 41.6607 240.829 41.6607H238.405V46.907L238.406 46.9089Z" fill="#2A5F8B"/>
<path d="M249.969 35.1826H254.167C254.89 35.1826 255.53 35.2632 256.079 35.4264C256.63 35.5876 257.088 35.8182 257.452 36.1089C257.819 36.4014 258.093 36.7501 258.279 37.1532C258.464 37.5582 258.554 37.9989 258.554 38.4751C258.554 38.8764 258.485 39.2476 258.34 39.5964C258.196 39.9432 257.992 40.2545 257.725 40.532C257.459 40.8076 257.137 41.0457 256.762 41.2426C256.387 41.4395 255.965 41.5914 255.502 41.7001L260.109 47.8332H257.943L253.544 41.8895H251.712V47.8332H249.967V35.1826H249.969ZM251.714 41.252H253.135C253.638 41.252 254.103 41.1901 254.534 41.0626C254.962 40.9351 255.333 40.7551 255.646 40.5226C255.955 40.2882 256.199 40.0089 256.375 39.677C256.55 39.3451 256.638 38.9757 256.638 38.5614C256.638 38.1789 256.569 37.8301 256.43 37.5132C256.289 37.1945 256.092 36.9226 255.837 36.6957C255.582 36.4707 255.282 36.2945 254.932 36.1689C254.579 36.0414 254.195 35.9776 253.777 35.9776H251.716V41.2539L251.714 41.252Z" fill="#2A5F8B"/>
<path d="M268.792 48.1293C267.838 48.1293 266.949 47.953 266.126 47.6043C265.301 47.2555 264.586 46.7774 263.975 46.168C263.364 45.5624 262.884 44.8536 262.535 44.0399C262.186 43.2299 262.01 42.3636 262.01 41.4393C262.01 40.5149 262.186 39.6768 262.535 38.8836C262.884 38.0905 263.364 37.3949 263.975 36.8043C264.586 36.2118 265.303 35.7468 266.126 35.4055C266.951 35.0661 267.84 34.8955 268.792 34.8955C269.745 34.8955 270.637 35.0643 271.464 35.4055C272.291 35.7468 273.009 36.2118 273.62 36.8043C274.231 37.3949 274.711 38.0886 275.06 38.8836C275.409 39.6786 275.585 40.5318 275.585 41.4393C275.585 42.3468 275.409 43.2299 275.06 44.0399C274.711 44.8518 274.231 45.5605 273.62 46.168C273.009 46.7774 272.291 47.2536 271.464 47.6043C270.637 47.953 269.746 48.1293 268.792 48.1293ZM268.792 47.4993C269.55 47.4993 270.219 47.3493 270.8 47.0455C271.383 46.7436 271.873 46.3236 272.266 45.7818C272.66 45.2418 272.958 44.6043 273.163 43.8655C273.367 43.1268 273.468 42.3205 273.468 41.4411C273.468 40.5618 273.367 39.7724 273.163 39.0468C272.958 38.323 272.66 37.6968 272.266 37.1718C271.873 36.6486 271.385 36.2418 270.8 35.9511C270.219 35.6624 269.55 35.5161 268.792 35.5161C268.035 35.5161 267.354 35.6624 266.769 35.9511C266.186 36.2399 265.696 36.6486 265.306 37.1718C264.914 37.6968 264.618 38.323 264.42 39.0468C264.219 39.7705 264.118 40.5711 264.118 41.4411C264.118 42.3111 264.217 43.1268 264.42 43.8655C264.618 44.6043 264.914 45.2436 265.306 45.7818C265.698 46.3236 266.186 46.7455 266.769 47.0455C267.354 47.3493 268.029 47.4993 268.792 47.4993Z" fill="#2A5F8B"/>
<path d="M279.219 35.1826H280.965V40.7926L287.816 35.1826H289.074L282.759 40.5057L290.773 47.8332H288.311L280.965 41.4132V47.8332H279.219V35.1826Z" fill="#2A5F8B"/>
<path d="M301.639 35.1826V36.002H294.971V40.5264H299.434V41.3457H294.971V47.0139H301.639V47.8332H293.226V35.1826H301.639Z" fill="#2A5F8B"/>
<path d="M304.91 35.1826H309.109C309.832 35.1826 310.472 35.2632 311.021 35.4264C311.572 35.5876 312.03 35.8182 312.394 36.1089C312.761 36.4014 313.035 36.7501 313.22 37.1532C313.406 37.5582 313.496 37.9989 313.496 38.4751C313.496 38.8764 313.427 39.2476 313.282 39.5964C313.138 39.9432 312.934 40.2545 312.667 40.532C312.401 40.8076 312.079 41.0457 311.704 41.2426C311.329 41.4395 310.907 41.5914 310.444 41.7001L315.05 47.8332H312.885L308.486 41.8895H306.654V47.8332H304.909V35.1826H304.91ZM306.656 41.252H308.077C308.58 41.252 309.045 41.1901 309.476 41.0626C309.904 40.9351 310.275 40.7551 310.588 40.5226C310.897 40.2882 311.141 40.0089 311.317 39.677C311.492 39.3451 311.58 38.9757 311.58 38.5614C311.58 38.1789 311.51 37.8301 311.372 37.5132C311.231 37.1945 311.034 36.9226 310.779 36.6957C310.524 36.4707 310.224 36.2945 309.874 36.1689C309.525 36.0414 309.137 35.9776 308.719 35.9776H306.658V41.2539L306.656 41.252Z" fill="#2A5F8B"/>
<path d="M322.102 34.8975L328.055 47.835H326.233L324.307 43.6162H318.706L316.732 47.835H315.703L321.753 34.8975H322.106H322.102ZM319.096 42.7968H323.915L321.491 37.6537L319.096 42.7968Z" fill="#2A5F8B"/>
<path d="M337.568 35.803C336.773 35.803 336.041 35.938 335.372 36.208C334.705 36.478 334.129 36.8661 333.645 37.3724C333.163 37.8768 332.786 38.488 332.515 39.2043C332.245 39.9205 332.11 40.7211 332.11 41.6024C332.11 42.4836 332.256 43.2974 332.546 44.0118C332.841 44.728 333.24 45.3355 333.756 45.838C334.268 46.3405 334.868 46.7268 335.552 46.9986C336.24 47.2668 336.981 47.4036 337.778 47.4036C338.07 47.4036 338.353 47.3755 338.629 47.323C338.906 47.2668 339.169 47.2011 339.411 47.1168C339.656 47.0343 339.885 46.9424 340.099 46.8411C340.313 46.7399 340.502 46.6368 340.667 46.5355V42.0993H338.273V41.3436H342.413V46.963C342.056 47.1543 341.7 47.3211 341.34 47.4636C340.982 47.608 340.59 47.7299 340.17 47.8274C339.752 47.9268 339.289 48.0018 338.781 48.0524C338.276 48.103 337.703 48.1293 337.061 48.1293C336.381 48.1293 335.734 48.0505 335.123 47.8949C334.511 47.7393 333.943 47.518 333.42 47.233C332.895 46.9461 332.423 46.603 332.003 46.2074C331.581 45.8099 331.223 45.3693 330.925 44.8855C330.626 44.4018 330.396 43.8824 330.236 43.3255C330.079 42.7705 329.998 42.1949 329.998 41.6024C329.998 41.0099 330.075 40.4361 330.227 39.8699C330.381 39.3074 330.598 38.7768 330.88 38.2761C331.165 37.7793 331.51 37.3218 331.918 36.9074C332.331 36.493 332.792 36.1386 333.302 35.8368C333.814 35.5386 334.375 35.3061 334.98 35.143C335.59 34.9761 336.233 34.8955 336.913 34.8955C337.547 34.8955 338.143 34.9855 338.691 35.1655C339.242 35.3455 339.745 35.5893 340.198 35.8893C340.654 36.193 341.063 36.5418 341.425 36.9374C341.786 37.3349 342.098 37.7474 342.36 38.173L341.548 38.7168C341.295 38.2255 341.003 37.7999 340.671 37.4343C340.339 37.0686 339.994 36.7649 339.636 36.523C339.278 36.283 338.918 36.0993 338.563 35.9793C338.207 35.8593 337.873 35.7993 337.56 35.7993" fill="#2A5F8B"/>
<path d="M354.844 35.1826V36.002H348.177V40.5264H352.641V41.3457H348.177V47.0139H354.844V47.8332H346.431V35.1826H354.844Z" fill="#2A5F8B"/>
<path d="M215.398 11.085V11.9043H208.731V16.4287H213.195V17.2481H208.731V22.9162H215.398V23.7356H206.985V11.085H215.398Z" fill="#2A5F8B"/>
<path d="M220.331 11.085H222.077V22.9162H228.452V23.7356H220.331V11.085Z" fill="#2A5F8B"/>
<path d="M234.529 11.085H232.783V23.7356H234.529V11.085Z" fill="#2A5F8B"/>
<path d="M249.966 11.085V11.9043H245.385V23.7356H243.64V11.9043H239.061V11.085H249.966Z" fill="#2A5F8B"/>
<path d="M262.894 11.085V11.9043H256.225V16.4287H260.689V17.2481H256.225V22.9162H262.894V23.7356H254.479V11.085H262.894Z" fill="#2A5F8B"/>
</g>
<defs>
<clipPath id="clip0_2176_9278">
<rect width="356.1" height="87.9713" fill="white"/>
</clipPath>
</defs>
</svg>
