<svg width="167" height="151" viewBox="0 0 167 151" fill="none" xmlns="http://www.w3.org/2000/svg">
<path opacity="0.12" d="M149.192 79.0951C150.249 74.1193 150.774 68.7122 150.774 62.8738C150.774 54.7502 149.419 46.9389 146.687 39.4462C143.959 31.9534 139.83 25.2589 134.292 19.369C128.753 13.4727 121.815 8.77046 113.464 5.26228C105.132 1.76697 95.3351 0 84.1093 0C75.9232 0 68.865 0.888311 62.9183 2.63597C56.991 4.38684 51.8869 6.8136 47.6384 9.92591C43.3866 13.0318 39.8996 16.7781 37.1709 21.165C34.4422 25.5422 32.3584 30.3603 30.9098 35.6258L34.2834 37.293C34.6075 35.0658 35.5667 32.1176 37.1676 28.4517C38.775 24.7826 41.1343 21.2358 44.2615 17.8113C47.3953 14.3836 51.3328 11.4386 56.0642 8.96357C60.7956 6.49175 66.3729 5.26228 72.7927 5.26228C81.4584 5.26228 89.2814 7.53455 96.2619 12.0759C103.242 16.6108 109.137 22.4717 113.95 29.6426C118.765 36.8134 122.492 44.7825 125.137 53.5465C125.192 53.7106 125.237 53.8683 125.282 54.0325C125.198 53.8812 125.117 53.7428 125.026 53.5915C121.653 47.9334 117.476 43.0702 112.504 39.002C107.527 34.9467 101.998 31.7571 95.9022 29.443C89.7999 27.1353 83.5454 25.9799 77.1255 25.9799C69.5844 25.9799 62.1988 27.2158 54.9786 29.678C47.7583 32.1498 41.2574 35.9412 35.4825 41.0329C29.7108 46.1342 25.0539 52.5938 21.5215 60.3955C20.4035 62.8738 19.4604 65.5033 18.6956 68.2809H0V71.8727H17.8239C16.7577 76.8614 16.2262 82.275 16.2262 88.1262C16.2262 96.2594 17.5808 104.064 20.3192 111.554C23.0479 119.047 27.1701 125.741 32.7149 131.631C38.2468 137.527 45.1916 142.236 53.5364 145.734C61.8748 149.243 71.6649 151 82.8972 151C91.0768 151 98.135 150.121 104.078 148.374C110.019 146.613 115.11 144.19 119.362 141.074C123.613 137.968 127.107 134.225 129.826 129.845C132.558 125.458 134.648 120.64 136.09 115.384L132.72 113.707C132.396 115.941 131.437 118.882 129.826 122.545C128.222 126.217 125.859 129.761 122.735 133.189C119.608 136.623 115.67 139.561 110.939 142.036C106.201 144.508 100.63 145.734 94.2105 145.734C85.5449 145.734 77.7153 143.465 70.7446 138.931C63.7641 134.389 57.8595 128.528 53.0568 121.357C48.2346 114.187 44.5078 106.218 41.8602 97.4503C41.8083 97.2861 41.763 97.1156 41.7176 96.9514C41.7986 97.1059 41.8893 97.2572 41.9801 97.4117C45.3537 103.063 49.5245 107.927 54.4957 111.992C59.4734 116.06 65.0053 119.246 71.1043 121.554C77.2001 123.861 83.4611 125.017 89.881 125.017C97.4253 125.017 104.801 123.787 112.021 121.316C119.251 118.844 125.743 115.062 131.514 109.961C137.296 104.863 141.953 98.403 145.478 90.6013C146.603 88.1069 147.546 85.4678 148.311 82.6773H167V79.0886H149.189L149.192 79.0951ZM40.7745 53.5948C42.2231 49.0534 44.3426 45.0239 47.1555 41.5157C49.9587 38.0171 53.3712 35.2685 57.3929 33.273C61.3952 31.2776 66.2108 30.2863 71.8335 30.2863C77.1255 30.2863 81.8959 31.7121 86.1541 34.583C90.3995 37.4571 94.0517 40.9202 97.1012 44.9852C100.144 49.0502 102.633 53.2311 104.561 57.531C106.48 61.8374 107.844 65.4196 108.658 68.2841H38.1269C38.451 63.0347 39.3357 58.1264 40.7745 53.5915M126.232 97.4213C124.777 101.963 122.654 105.983 119.845 109.491C117.041 112.993 113.629 115.748 109.617 117.737C105.605 119.732 100.796 120.733 95.173 120.733C89.8809 120.733 85.1106 119.294 80.8523 116.427C76.6005 113.562 72.9483 110.089 69.8988 106.024C66.8525 101.966 64.3701 97.7786 62.4451 93.4754C60.5169 89.1787 59.1526 85.59 58.3521 82.7224H128.87C128.556 87.9814 127.671 92.88 126.232 97.4246M129.113 79.1305H38.2274C38.0005 76.6973 37.8903 74.2737 37.8903 71.8792H128.776C129.003 74.3059 129.113 76.7037 129.113 79.0951V79.1305Z" fill="#DAE7F2"/>
</svg>
