<svg width="97" height="88" viewBox="0 0 97 88" fill="none" xmlns="http://www.w3.org/2000/svg">
<path d="M86.3194 46.0781C86.9306 43.1794 87.2344 40.0294 87.2344 36.6281C87.2344 31.8956 86.4506 27.345 84.87 22.98C83.2913 18.615 80.9025 14.715 77.6981 11.2838C74.4938 7.84875 70.4794 5.10938 65.6475 3.06563C60.8269 1.02938 55.1588 0 48.6637 0C43.9275 0 39.8438 0.5175 36.4031 1.53562C32.9737 2.55562 30.0206 3.96938 27.5625 5.7825C25.1025 7.59188 23.085 9.77437 21.5062 12.33C19.9275 14.88 18.7219 17.6869 17.8837 20.7544L19.8356 21.7256C20.0231 20.4281 20.5781 18.7106 21.5044 16.575C22.4344 14.4375 23.7994 12.3713 25.6087 10.3763C27.4219 8.37938 29.7 6.66375 32.4375 5.22188C35.175 3.78188 38.4019 3.06563 42.1162 3.06563C47.13 3.06563 51.6562 4.38938 55.695 7.035C59.7338 9.67688 63.1444 13.0912 65.9287 17.2687C68.715 21.4462 70.8713 26.0887 72.4013 31.1944C72.4331 31.29 72.4594 31.3819 72.4856 31.4775C72.4369 31.3894 72.39 31.3087 72.3375 31.2206C70.3856 27.9244 67.9688 25.0912 65.0925 22.7213C62.2125 20.3587 59.0137 18.5006 55.4869 17.1525C51.9562 15.8081 48.3375 15.135 44.6231 15.135C40.26 15.135 35.9869 15.855 31.8094 17.2894C27.6319 18.7294 23.8706 20.9381 20.5294 23.9044C17.19 26.8762 14.4956 30.6394 12.4519 35.1844C11.805 36.6281 11.2594 38.16 10.8169 39.7781H0V41.8706H10.3125C9.69563 44.7769 9.38812 47.9306 9.38812 51.3394C9.38812 56.0775 10.1719 60.6244 11.7563 64.9875C13.335 69.3525 15.72 73.2525 18.9281 76.6838C22.1287 80.1188 26.1469 82.8619 30.975 84.9C35.7994 86.9437 41.4637 87.9675 47.9625 87.9675C52.695 87.9675 56.7788 87.4556 60.2175 86.4375C63.6544 85.4119 66.6 84 69.06 82.185C71.52 80.3756 73.5412 78.195 75.1144 75.6431C76.695 73.0875 77.9044 70.2806 78.7388 67.2188L76.7887 66.2419C76.6012 67.5431 76.0462 69.2569 75.1144 71.3906C74.1862 73.53 72.8194 75.5944 71.0119 77.5912C69.2025 79.5919 66.9244 81.3037 64.1869 82.7456C61.4456 84.1856 58.2225 84.9 54.5081 84.9C49.4944 84.9 44.9644 83.5781 40.9313 80.9362C36.8925 78.2906 33.4762 74.8763 30.6975 70.6987C27.9075 66.5212 25.7512 61.8787 24.2194 56.7712C24.1894 56.6756 24.1631 56.5763 24.1369 56.4806C24.1838 56.5706 24.2362 56.6588 24.2887 56.7487C26.2406 60.0413 28.6538 62.8744 31.53 65.2425C34.41 67.6125 37.6106 69.4688 41.1394 70.8131C44.6663 72.1575 48.2887 72.8306 52.0031 72.8306C56.3681 72.8306 60.6356 72.1144 64.8131 70.6744C68.9963 69.2344 72.7519 67.0312 76.0912 64.0594C79.4362 61.0894 82.1306 57.3262 84.1706 52.7812C84.8213 51.3281 85.3669 49.7906 85.8094 48.165H96.6225V46.0744H86.3175L86.3194 46.0781ZM23.5912 31.2225C24.4294 28.5769 25.6556 26.2294 27.2831 24.1856C28.905 22.1475 30.8794 20.5462 33.2063 19.3837C35.5219 18.2212 38.3081 17.6437 41.5612 17.6437C44.6231 17.6437 47.3831 18.4744 49.8469 20.1469C52.3031 21.8212 54.4163 23.8388 56.1806 26.2069C57.9412 28.575 59.3812 31.0106 60.4969 33.5156C61.6069 36.0244 62.3963 38.1113 62.8669 39.78H22.0594C22.2469 36.7219 22.7587 33.8625 23.5912 31.2206M73.035 56.7544C72.1931 59.4 70.965 61.7419 69.3394 63.7856C67.7175 65.8256 65.7431 67.4306 63.4219 68.5894C61.1006 69.7519 58.3181 70.335 55.065 70.335C52.0031 70.335 49.2431 69.4969 46.7794 67.8262C44.3194 66.1575 42.2062 64.1344 40.4419 61.7663C38.6794 59.4019 37.2431 56.9625 36.1294 54.4556C35.0138 51.9525 34.2244 49.8619 33.7612 48.1912H74.5612C74.3794 51.255 73.8675 54.1088 73.035 56.7563M74.7019 46.0988H22.1175C21.9862 44.6813 21.9225 43.2694 21.9225 41.8744H74.5069C74.6381 43.2881 74.7019 44.685 74.7019 46.0781V46.0988Z" fill="#2A5F8B"/>
</svg>
